<svg width="194" height="17" viewBox="0 0 194 17" fill="none" xmlns="http://www.w3.org/2000/svg">
<path d="M0.14427 13V0.598399H5.49467C6.87657 0.598399 7.94547 0.875958 8.70137 1.43108C9.46909 1.9862 9.85295 2.77163 9.85295 3.78738C9.85295 4.46061 9.6935 5.02754 9.3746 5.48817C9.06752 5.9488 8.64232 6.29723 8.09901 6.53345C7.56751 6.76967 6.98287 6.88778 6.34507 6.88778L6.64625 6.46258C7.43759 6.46258 8.11673 6.5866 8.68366 6.83463C9.2624 7.07085 9.71122 7.43109 10.0301 7.91534C10.349 8.38779 10.5085 8.97834 10.5085 9.687C10.5085 10.7382 10.1187 11.5531 9.33917 12.1319C8.57145 12.7106 7.40806 13 5.84901 13H0.14427ZM1.4553 11.9193H5.83129C6.91791 11.9193 7.75058 11.7362 8.32933 11.3701C8.90807 10.9921 9.19744 10.3957 9.19744 9.5807C9.19744 8.77755 8.90807 8.1929 8.32933 7.82676C7.75058 7.44881 6.91791 7.25983 5.83129 7.25983H1.31356V6.17912H5.40609C6.39822 6.17912 7.16594 5.99014 7.70925 5.61219C8.26437 5.23424 8.54192 4.67321 8.54192 3.92911C8.54192 3.17321 8.26437 2.61218 7.70925 2.24604C7.16594 1.86809 6.39822 1.67911 5.40609 1.67911H1.4553V11.9193ZM17.186 13.0886C16.2174 13.0886 15.3671 12.8878 14.6348 12.4862C13.9025 12.0728 13.3296 11.5118 12.9163 10.8031C12.5029 10.0827 12.2962 9.2618 12.2962 8.34054C12.2962 7.41928 12.4911 6.60432 12.8808 5.89565C13.2824 5.18699 13.8257 4.63187 14.5108 4.2303C15.2076 3.81691 15.9871 3.61022 16.8493 3.61022C17.7234 3.61022 18.497 3.811 19.1702 4.21258C19.8552 4.60234 20.3927 5.15746 20.7824 5.87794C21.1722 6.5866 21.3671 7.40747 21.3671 8.34054C21.3671 8.3996 21.3612 8.46456 21.3493 8.53542C21.3493 8.59448 21.3493 8.65944 21.3493 8.73031H13.2529V7.79133H20.6761L20.1801 8.16338C20.1801 7.49015 20.0324 6.89369 19.7371 6.374C19.4537 5.8425 19.0639 5.42912 18.5678 5.13384C18.0718 4.83857 17.4989 4.69093 16.8493 4.69093C16.2115 4.69093 15.6387 4.83857 15.1308 5.13384C14.623 5.42912 14.2273 5.8425 13.9438 6.374C13.6604 6.9055 13.5186 7.51377 13.5186 8.19881V8.39369C13.5186 9.10235 13.6722 9.72834 13.9793 10.2716C14.2982 10.8031 14.7352 11.2224 15.2903 11.5295C15.8572 11.8248 16.5009 11.9724 17.2214 11.9724C17.7883 11.9724 18.3139 11.872 18.7982 11.6713C19.2942 11.4705 19.7194 11.1634 20.0738 10.75L20.7824 11.565C20.369 12.061 19.8493 12.439 19.2234 12.6988C18.6092 12.9587 17.93 13.0886 17.186 13.0886ZM27.7896 13.0886C26.8683 13.0886 26.0416 12.8878 25.3093 12.4862C24.5888 12.0728 24.0219 11.5118 23.6085 10.8031C23.1951 10.0827 22.9884 9.2618 22.9884 8.34054C22.9884 7.40747 23.1951 6.5866 23.6085 5.87794C24.0219 5.16928 24.5888 4.61416 25.3093 4.21258C26.0416 3.811 26.8683 3.61022 27.7896 3.61022C28.5809 3.61022 29.2955 3.76376 29.9333 4.07085C30.5711 4.37793 31.0731 4.83857 31.4392 5.45274L30.5002 6.09054C30.1813 5.61809 29.7857 5.26967 29.3132 5.04526C28.8408 4.82085 28.327 4.70864 27.7719 4.70864C27.1105 4.70864 26.514 4.86219 25.9825 5.16927C25.451 5.46455 25.0317 5.88384 24.7246 6.42715C24.4175 6.97046 24.264 7.60826 24.264 8.34054C24.264 9.07283 24.4175 9.71062 24.7246 10.2539C25.0317 10.7972 25.451 11.2224 25.9825 11.5295C26.514 11.8248 27.1105 11.9724 27.7719 11.9724C28.327 11.9724 28.8408 11.8602 29.3132 11.6358C29.7857 11.4114 30.1813 11.0689 30.5002 10.6083L31.4392 11.2461C31.0731 11.8484 30.5711 12.3091 29.9333 12.628C29.2955 12.935 28.5809 13.0886 27.7896 13.0886ZM39.739 13V10.9449L39.6859 10.6083V7.17125C39.6859 6.37991 39.4614 5.77164 39.0126 5.34644C38.5756 4.92124 37.9201 4.70864 37.0461 4.70864C36.4437 4.70864 35.8709 4.80904 35.3276 5.00983C34.7843 5.21061 34.3236 5.47636 33.9457 5.80707L33.3788 4.86809C33.8512 4.46652 34.4181 4.15943 35.0795 3.94683C35.741 3.72242 36.4378 3.61022 37.1701 3.61022C38.3748 3.61022 39.302 3.9114 39.9516 4.51376C40.613 5.10431 40.9437 6.00786 40.9437 7.2244V13H39.739ZM36.5323 13.0886C35.8355 13.0886 35.2272 12.9764 34.7075 12.752C34.1996 12.5157 33.8099 12.1968 33.5382 11.7953C33.2665 11.3819 33.1307 10.9094 33.1307 10.3779C33.1307 9.89369 33.2429 9.45669 33.4673 9.06692C33.7036 8.66535 34.0815 8.34645 34.6012 8.11023C35.1327 7.86219 35.8414 7.73818 36.7272 7.73818H39.9339V8.67716H36.7626C35.865 8.67716 35.239 8.83661 34.8847 9.1555C34.5421 9.4744 34.3709 9.87007 34.3709 10.3425C34.3709 10.874 34.5776 11.2992 34.991 11.6181C35.4043 11.937 35.9831 12.0965 36.7272 12.0965C37.4358 12.0965 38.0441 11.937 38.552 11.6181C39.0717 11.2874 39.4496 10.815 39.6859 10.2008L39.9693 11.0689C39.7331 11.6831 39.3197 12.1732 38.7292 12.5394C38.1504 12.9055 37.4181 13.0886 36.5323 13.0886ZM48.2048 13.0886C47.4134 13.0886 46.7225 12.9409 46.1319 12.6457C45.5414 12.3504 45.0807 11.9075 44.75 11.3169C44.4311 10.7264 44.2717 9.98818 44.2717 9.10235V3.6988H45.5296V8.96062C45.5296 9.95275 45.7717 10.7028 46.2559 11.2106C46.752 11.7067 47.4429 11.9547 48.3288 11.9547C48.9784 11.9547 49.5394 11.8248 50.0119 11.565C50.4961 11.2933 50.8622 10.9035 51.1103 10.3957C51.3701 9.88779 51.5 9.27952 51.5 8.57086V3.6988H52.7579V13H51.5532V10.4488L51.7481 10.9094C51.4528 11.5945 50.9922 12.1319 50.3662 12.5217C49.752 12.8996 49.0315 13.0886 48.2048 13.0886ZM58.7616 13.0886C57.9939 13.0886 57.2675 12.9823 56.5825 12.7697C55.8974 12.5453 55.36 12.2677 54.9703 11.937L55.5372 10.9449C55.9152 11.2283 56.3994 11.4764 56.99 11.689C57.5805 11.8898 58.2006 11.9902 58.8502 11.9902C59.736 11.9902 60.3738 11.8543 60.7636 11.5827C61.1534 11.2992 61.3482 10.9272 61.3482 10.4665C61.3482 10.124 61.236 9.85826 61.0116 9.66928C60.799 9.4685 60.5156 9.32086 60.1612 9.22637C59.8069 9.12007 59.4112 9.03149 58.9742 8.96062C58.5372 8.88976 58.1002 8.80708 57.6632 8.71259C57.238 8.6181 56.8482 8.48227 56.4939 8.30511C56.1396 8.11613 55.8502 7.86219 55.6258 7.5433C55.4132 7.2244 55.3069 6.7992 55.3069 6.2677C55.3069 5.75983 55.4486 5.3051 55.7321 4.90353C56.0156 4.50195 56.4289 4.18896 56.9722 3.96455C57.5274 3.72833 58.2006 3.61022 58.9919 3.61022C59.5943 3.61022 60.1967 3.69289 60.799 3.85825C61.4014 4.01179 61.8975 4.21849 62.2872 4.47833L61.738 5.48817C61.3246 5.20471 60.8817 5.00392 60.4093 4.88581C59.9368 4.75589 59.4644 4.69093 58.9919 4.69093C58.1534 4.69093 57.5333 4.83857 57.1317 5.13384C56.7419 5.41731 56.547 5.78345 56.547 6.23227C56.547 6.5866 56.6533 6.86416 56.8659 7.06495C57.0904 7.26574 57.3797 7.42519 57.7341 7.5433C58.1002 7.64959 58.4959 7.73818 58.9211 7.80904C59.3581 7.87991 59.7892 7.96849 60.2144 8.07479C60.6514 8.16928 61.0471 8.30511 61.4014 8.48227C61.7675 8.64763 62.0569 8.88976 62.2695 9.20865C62.4939 9.51574 62.6061 9.92322 62.6061 10.4311C62.6061 10.9744 62.4526 11.4468 62.1455 11.8484C61.8502 12.2382 61.4132 12.5453 60.8345 12.7697C60.2675 12.9823 59.5766 13.0886 58.7616 13.0886ZM68.8651 13.0886C67.8965 13.0886 67.0462 12.8878 66.3139 12.4862C65.5816 12.0728 65.0087 11.5118 64.5954 10.8031C64.182 10.0827 63.9753 9.2618 63.9753 8.34054C63.9753 7.41928 64.1702 6.60432 64.5599 5.89565C64.9615 5.18699 65.5048 4.63187 66.1899 4.2303C66.8867 3.81691 67.6662 3.61022 68.5284 3.61022C69.4025 3.61022 70.1761 3.811 70.8493 4.21258C71.5343 4.60234 72.0718 5.15746 72.4615 5.87794C72.8513 6.5866 73.0462 7.40747 73.0462 8.34054C73.0462 8.3996 73.0403 8.46456 73.0284 8.53542C73.0284 8.59448 73.0284 8.65944 73.0284 8.73031H64.932V7.79133H72.3552L71.8592 8.16338C71.8592 7.49015 71.7115 6.89369 71.4162 6.374C71.1328 5.8425 70.743 5.42912 70.2469 5.13384C69.7509 4.83857 69.178 4.69093 68.5284 4.69093C67.8906 4.69093 67.3178 4.83857 66.8099 5.13384C66.3021 5.42912 65.9064 5.8425 65.6229 6.374C65.3395 6.9055 65.1977 7.51377 65.1977 8.19881V8.39369C65.1977 9.10235 65.3513 9.72834 65.6584 10.2716C65.9773 10.8031 66.4143 11.2224 66.9694 11.5295C67.5363 11.8248 68.18 11.9724 68.9005 11.9724C69.4674 11.9724 69.993 11.872 70.4773 11.6713C70.9733 11.4705 71.3985 11.1634 71.7529 10.75L72.4615 11.565C72.0481 12.061 71.5284 12.439 70.9025 12.6988C70.2883 12.9587 69.6091 13.0886 68.8651 13.0886ZM80.3141 16.5256C79.8771 16.5256 79.4578 16.4547 79.0562 16.313C78.6665 16.1713 78.3299 15.9587 78.0464 15.6752L78.631 14.7362C78.8673 14.9606 79.1212 15.1319 79.3928 15.25C79.6763 15.3799 79.9893 15.4449 80.3318 15.4449C80.7452 15.4449 81.0995 15.3268 81.3948 15.0906C81.7019 14.8661 81.9913 14.4646 82.2629 13.8858L82.8653 12.5217L83.007 12.3268L86.8338 3.6988H88.074L83.4145 14.1161C83.1547 14.7185 82.8653 15.1969 82.5464 15.5512C82.2393 15.9055 81.9027 16.1535 81.5366 16.2953C81.1704 16.4488 80.7629 16.5256 80.3141 16.5256ZM82.7944 13.2657L78.507 3.6988H79.818L83.6094 12.2382L82.7944 13.2657ZM93.3773 13.0886C92.4797 13.0886 91.6706 12.8878 90.9501 12.4862C90.2415 12.0728 89.6805 11.5118 89.2671 10.8031C88.8537 10.0827 88.647 9.2618 88.647 8.34054C88.647 7.40747 88.8537 6.5866 89.2671 5.87794C89.6805 5.16928 90.2415 4.61416 90.9501 4.21258C91.6588 3.811 92.4679 3.61022 93.3773 3.61022C94.2986 3.61022 95.1135 3.811 95.8222 4.21258C96.5427 4.61416 97.1037 5.16928 97.5053 5.87794C97.9187 6.5866 98.1254 7.40747 98.1254 8.34054C98.1254 9.2618 97.9187 10.0827 97.5053 10.8031C97.1037 11.5118 96.5427 12.0728 95.8222 12.4862C95.1017 12.8878 94.2868 13.0886 93.3773 13.0886ZM93.3773 11.9724C94.0505 11.9724 94.647 11.8248 95.1667 11.5295C95.6864 11.2224 96.0939 10.7972 96.3891 10.2539C96.6962 9.69881 96.8498 9.06102 96.8498 8.34054C96.8498 7.60826 96.6962 6.97046 96.3891 6.42715C96.0939 5.88384 95.6864 5.46455 95.1667 5.16927C94.647 4.86219 94.0565 4.70864 93.395 4.70864C92.7336 4.70864 92.1431 4.86219 91.6234 5.16927C91.1037 5.46455 90.6903 5.88384 90.3832 6.42715C90.0761 6.97046 89.9226 7.60826 89.9226 8.34054C89.9226 9.06102 90.0761 9.69881 90.3832 10.2539C90.6903 10.7972 91.1037 11.2224 91.6234 11.5295C92.1431 11.8248 92.7277 11.9724 93.3773 11.9724ZM104.538 13.0886C103.747 13.0886 103.056 12.9409 102.465 12.6457C101.875 12.3504 101.414 11.9075 101.083 11.3169C100.764 10.7264 100.605 9.98818 100.605 9.10235V3.6988H101.863V8.96062C101.863 9.95275 102.105 10.7028 102.589 11.2106C103.085 11.7067 103.776 11.9547 104.662 11.9547C105.312 11.9547 105.873 11.8248 106.345 11.565C106.829 11.2933 107.195 10.9035 107.443 10.3957C107.703 9.88779 107.833 9.27952 107.833 8.57086V3.6988H109.091V13H107.886V10.4488L108.081 10.9094C107.786 11.5945 107.325 12.1319 106.699 12.5217C106.085 12.8996 105.365 13.0886 104.538 13.0886ZM123.062 13V10.9449L123.009 10.6083V7.17125C123.009 6.37991 122.785 5.77164 122.336 5.34644C121.899 4.92124 121.243 4.70864 120.369 4.70864C119.767 4.70864 119.194 4.80904 118.651 5.00983C118.108 5.21061 117.647 5.47636 117.269 5.80707L116.702 4.86809C117.174 4.46652 117.741 4.15943 118.403 3.94683C119.064 3.72242 119.761 3.61022 120.493 3.61022C121.698 3.61022 122.625 3.9114 123.275 4.51376C123.936 5.10431 124.267 6.00786 124.267 7.2244V13H123.062ZM119.856 13.0886C119.159 13.0886 118.55 12.9764 118.031 12.752C117.523 12.5157 117.133 12.1968 116.861 11.7953C116.59 11.3819 116.454 10.9094 116.454 10.3779C116.454 9.89369 116.566 9.45669 116.791 9.06692C117.027 8.66535 117.405 8.34645 117.924 8.11023C118.456 7.86219 119.165 7.73818 120.05 7.73818H123.257V8.67716H120.086C119.188 8.67716 118.562 8.83661 118.208 9.1555C117.865 9.4744 117.694 9.87007 117.694 10.3425C117.694 10.874 117.901 11.2992 118.314 11.6181C118.728 11.937 119.306 12.0965 120.05 12.0965C120.759 12.0965 121.367 11.937 121.875 11.6181C122.395 11.2874 122.773 10.815 123.009 10.2008L123.293 11.0689C123.056 11.6831 122.643 12.1732 122.052 12.5394C121.474 12.9055 120.741 13.0886 119.856 13.0886ZM127.684 13V3.6988H128.888V6.23227L128.764 5.78936C129.024 5.08069 129.461 4.54329 130.075 4.17715C130.689 3.79919 131.451 3.61022 132.361 3.61022V4.83266C132.313 4.83266 132.266 4.83266 132.219 4.83266C132.172 4.82085 132.124 4.81494 132.077 4.81494C131.097 4.81494 130.329 5.11613 129.774 5.71849C129.219 6.30904 128.941 7.15353 128.941 8.25196V13H127.684ZM138.52 13.0886C137.552 13.0886 136.701 12.8878 135.969 12.4862C135.237 12.0728 134.664 11.5118 134.251 10.8031C133.837 10.0827 133.63 9.2618 133.63 8.34054C133.63 7.41928 133.825 6.60432 134.215 5.89565C134.617 5.18699 135.16 4.63187 135.845 4.2303C136.542 3.81691 137.321 3.61022 138.184 3.61022C139.058 3.61022 139.831 3.811 140.505 4.21258C141.19 4.60234 141.727 5.15746 142.117 5.87794C142.506 6.5866 142.701 7.40747 142.701 8.34054C142.701 8.3996 142.695 8.46456 142.684 8.53542C142.684 8.59448 142.684 8.65944 142.684 8.73031H134.587V7.79133H142.01L141.514 8.16338C141.514 7.49015 141.367 6.89369 141.071 6.374C140.788 5.8425 140.398 5.42912 139.902 5.13384C139.406 4.83857 138.833 4.69093 138.184 4.69093C137.546 4.69093 136.973 4.83857 136.465 5.13384C135.957 5.42912 135.562 5.8425 135.278 6.374C134.995 6.9055 134.853 7.51377 134.853 8.19881V8.39369C134.853 9.10235 135.006 9.72834 135.314 10.2716C135.632 10.8031 136.069 11.2224 136.625 11.5295C137.192 11.8248 137.835 11.9724 138.556 11.9724C139.123 11.9724 139.648 11.872 140.132 11.6713C140.629 11.4705 141.054 11.1634 141.408 10.75L142.117 11.565C141.703 12.061 141.184 12.439 140.558 12.6988C139.943 12.9587 139.264 13.0886 138.52 13.0886ZM144.5 15.5866L145.279 12.3091L145.421 13.0709C145.149 13.0709 144.919 12.9823 144.73 12.8051C144.553 12.628 144.464 12.3976 144.464 12.1142C144.464 11.8307 144.553 11.6004 144.73 11.4232C144.919 11.2461 145.144 11.1575 145.403 11.1575C145.675 11.1575 145.894 11.252 146.059 11.4409C146.236 11.6299 146.325 11.8543 146.325 12.1142C146.325 12.2087 146.319 12.3031 146.307 12.3976C146.295 12.4921 146.272 12.5984 146.236 12.7165C146.201 12.8346 146.153 12.9764 146.094 13.1417L145.35 15.5866H144.5ZM153.919 13V0.598399H155.23V13H153.919ZM169.464 13V10.9449L169.411 10.6083V7.17125C169.411 6.37991 169.187 5.77164 168.738 5.34644C168.301 4.92124 167.646 4.70864 166.772 4.70864C166.169 4.70864 165.596 4.80904 165.053 5.00983C164.51 5.21061 164.049 5.47636 163.671 5.80707L163.104 4.86809C163.577 4.46652 164.144 4.15943 164.805 3.94683C165.466 3.72242 166.163 3.61022 166.896 3.61022C168.1 3.61022 169.027 3.9114 169.677 4.51376C170.338 5.10431 170.669 6.00786 170.669 7.2244V13H169.464ZM166.258 13.0886C165.561 13.0886 164.953 12.9764 164.433 12.752C163.925 12.5157 163.535 12.1968 163.264 11.7953C162.992 11.3819 162.856 10.9094 162.856 10.3779C162.856 9.89369 162.968 9.45669 163.193 9.06692C163.429 8.66535 163.807 8.34645 164.327 8.11023C164.858 7.86219 165.567 7.73818 166.453 7.73818H169.659V8.67716H166.488C165.59 8.67716 164.964 8.83661 164.61 9.1555C164.268 9.4744 164.096 9.87007 164.096 10.3425C164.096 10.874 164.303 11.2992 164.716 11.6181C165.13 11.937 165.709 12.0965 166.453 12.0965C167.161 12.0965 167.77 11.937 168.277 11.6181C168.797 11.2874 169.175 10.815 169.411 10.2008L169.695 11.0689C169.459 11.6831 169.045 12.1732 168.455 12.5394C167.876 12.9055 167.144 13.0886 166.258 13.0886ZM185.708 3.61022C186.464 3.61022 187.119 3.75785 187.674 4.05313C188.241 4.3366 188.678 4.7736 188.985 5.36416C189.304 5.95471 189.464 6.69881 189.464 7.59645V13H188.206V7.72046C188.206 6.74014 187.97 6.00195 187.497 5.50589C187.037 4.99801 186.381 4.74408 185.531 4.74408C184.893 4.74408 184.338 4.8799 183.865 5.15156C183.405 5.4114 183.044 5.79526 182.785 6.30314C182.537 6.7992 182.412 7.40156 182.412 8.11023V13H181.155V7.72046C181.155 6.74014 180.918 6.00195 180.446 5.50589C179.974 4.99801 179.312 4.74408 178.462 4.74408C177.836 4.74408 177.286 4.8799 176.814 5.15156C176.342 5.4114 175.975 5.79526 175.716 6.30314C175.468 6.7992 175.344 7.40156 175.344 8.11023V13H174.086V3.6988H175.29V6.21455L175.096 5.77164C175.379 5.09841 175.834 4.57282 176.46 4.19486C177.098 3.8051 177.848 3.61022 178.71 3.61022C179.619 3.61022 180.393 3.84053 181.031 4.30116C181.668 4.74998 182.082 5.42912 182.271 6.33857L181.775 6.14369C182.046 5.38778 182.525 4.77951 183.21 4.31888C183.907 3.84644 184.739 3.61022 185.708 3.61022ZM192.999 13.0886C192.739 13.0886 192.515 12.9941 192.326 12.8051C192.149 12.6161 192.06 12.3858 192.06 12.1142C192.06 11.8307 192.149 11.6004 192.326 11.4232C192.515 11.2461 192.739 11.1575 192.999 11.1575C193.259 11.1575 193.477 11.2461 193.655 11.4232C193.843 11.6004 193.938 11.8307 193.938 12.1142C193.938 12.3858 193.843 12.6161 193.655 12.8051C193.477 12.9941 193.259 13.0886 192.999 13.0886Z" fill="white"/>
</svg>
