<svg width="42" height="41" viewBox="0 0 42 41" fill="none" xmlns="http://www.w3.org/2000/svg">
<path d="M33.84 1C32.1161 1 30.4628 1.68482 29.2438 2.90381C28.0248 4.12279 27.34 5.77609 27.34 7.5V33.5C27.34 35.2239 28.0248 36.8772 29.2438 38.0962C30.4628 39.3152 32.1161 40 33.84 40C35.5639 40 37.2172 39.3152 38.4362 38.0962C39.6552 36.8772 40.34 35.2239 40.34 33.5C40.34 31.7761 39.6552 30.1228 38.4362 28.9038C37.2172 27.6848 35.5639 27 33.84 27H7.84C6.11609 27 4.46279 27.6848 3.24381 28.9038C2.02482 30.1228 1.34 31.7761 1.34 33.5C1.34 35.2239 2.02482 36.8772 3.24381 38.0962C4.46279 39.3152 6.11609 40 7.84 40C9.5639 40 11.2172 39.3152 12.4362 38.0962C13.6552 36.8772 14.34 35.2239 14.34 33.5V7.5C14.34 5.77609 13.6552 4.12279 12.4362 2.90381C11.2172 1.68482 9.5639 1 7.84 1C6.11609 1 4.46279 1.68482 3.24381 2.90381C2.02482 4.12279 1.34 5.77609 1.34 7.5C1.34 9.2239 2.02482 10.8772 3.24381 12.0962C4.46279 13.3152 6.11609 14 7.84 14H33.84C35.5639 14 37.2172 13.3152 38.4362 12.0962C39.6552 10.8772 40.34 9.2239 40.34 7.5C40.34 5.77609 39.6552 4.12279 38.4362 2.90381C37.2172 1.68482 35.5639 1 33.84 1Z" stroke="white" stroke-width="1.56" stroke-linecap="round" stroke-linejoin="round"/>
</svg>
