<svg width="236" height="67" viewBox="0 0 236 67" fill="none" xmlns="http://www.w3.org/2000/svg">
<path d="M21.1803 25L13.5576 1.69936H19.1498L25.7738 22.3371H22.9777L29.9014 1.69936H34.8944L41.5517 22.3371H38.8555L45.6459 1.69936H50.8054L43.1827 25H37.3908L31.4991 6.89208H33.0303L26.9721 25H21.1803ZM61.0043 25.2663C58.9627 25.2663 57.1653 24.8669 55.6119 24.068C54.0807 23.2691 52.8935 22.1817 52.0502 20.8059C51.207 19.4078 50.7853 17.8212 50.7853 16.0459C50.7853 14.2484 51.1959 12.6618 52.0169 11.2859C52.8602 9.88787 54.003 8.80051 55.4455 8.02382C56.8879 7.22494 58.5189 6.8255 60.3386 6.8255C62.0917 6.8255 63.6673 7.20275 65.0653 7.95725C66.4855 8.68955 67.6062 9.75472 68.4272 11.1528C69.2483 12.5286 69.6589 14.1818 69.6589 16.1125C69.6589 16.3122 69.6478 16.5452 69.6256 16.8115C69.6034 17.0556 69.5812 17.2886 69.559 17.5105H55.0127V14.4814H66.8295L64.8323 15.3802C64.8323 14.4481 64.6437 13.6382 64.2664 12.9502C63.8892 12.2623 63.3677 11.7297 62.7019 11.3525C62.0362 10.953 61.2595 10.7533 60.3719 10.7533C59.4842 10.7533 58.6965 10.953 58.0085 11.3525C57.3428 11.7297 56.8213 12.2734 56.4441 12.9835C56.0668 13.6715 55.8782 14.4925 55.8782 15.4467V16.2456C55.8782 17.222 56.089 18.0875 56.5106 18.842C56.9545 19.5743 57.5647 20.1402 58.3414 20.5396C59.1403 20.9168 60.0723 21.1055 61.1375 21.1055C62.0917 21.1055 62.9239 20.9612 63.634 20.6727C64.3663 20.3843 65.032 19.9515 65.6312 19.3746L68.394 22.3704C67.5729 23.3024 66.541 24.0236 65.2983 24.534C64.0556 25.0222 62.6243 25.2663 61.0043 25.2663ZM73.116 25V0.301323H78.3087V25H73.116ZM91.7825 25.2663C89.8519 25.2663 88.1321 24.8779 86.6231 24.1013C85.1141 23.3024 83.9268 22.2039 83.0614 20.8059C82.2181 19.4078 81.7965 17.8212 81.7965 16.0459C81.7965 14.2484 82.2181 12.6618 83.0614 11.2859C83.9268 9.88787 85.1141 8.80051 86.6231 8.02382C88.1321 7.22494 89.8519 6.8255 91.7825 6.8255C93.6687 6.8255 95.3109 7.22494 96.7089 8.02382C98.107 8.80051 99.1388 9.92116 99.8046 11.3858L95.7769 13.5494C95.3109 12.7061 94.7228 12.0848 94.0127 11.6853C93.3248 11.2859 92.5703 11.0862 91.7492 11.0862C90.8616 11.0862 90.0627 11.2859 89.3526 11.6853C88.6425 12.0848 88.0766 12.6507 87.6549 13.383C87.2555 14.1153 87.0558 15.0029 87.0558 16.0459C87.0558 17.0889 87.2555 17.9765 87.6549 18.7088C88.0766 19.4411 88.6425 20.007 89.3526 20.4064C90.0627 20.8059 90.8616 21.0056 91.7492 21.0056C92.5703 21.0056 93.3248 20.817 94.0127 20.4397C94.7228 20.0403 95.3109 19.4078 95.7769 18.5424L99.8046 20.7393C99.1388 22.1817 98.107 23.3024 96.7089 24.1013C95.3109 24.8779 93.6687 25.2663 91.7825 25.2663ZM111.088 25.2663C109.18 25.2663 107.482 24.8669 105.995 24.068C104.531 23.2691 103.366 22.1817 102.5 20.8059C101.657 19.4078 101.235 17.8212 101.235 16.0459C101.235 14.2484 101.657 12.6618 102.5 11.2859C103.366 9.88787 104.531 8.80051 105.995 8.02382C107.482 7.22494 109.18 6.8255 111.088 6.8255C112.974 6.8255 114.661 7.22494 116.148 8.02382C117.635 8.80051 118.8 9.87678 119.643 11.2526C120.486 12.6285 120.908 14.2262 120.908 16.0459C120.908 17.8212 120.486 19.4078 119.643 20.8059C118.8 22.1817 117.635 23.2691 116.148 24.068C114.661 24.8669 112.974 25.2663 111.088 25.2663ZM111.088 21.0056C111.954 21.0056 112.73 20.8059 113.418 20.4064C114.106 20.007 114.65 19.4411 115.049 18.7088C115.449 17.9543 115.648 17.0667 115.648 16.0459C115.648 15.0029 115.449 14.1153 115.049 13.383C114.65 12.6507 114.106 12.0848 113.418 11.6853C112.73 11.2859 111.954 11.0862 111.088 11.0862C110.223 11.0862 109.446 11.2859 108.758 11.6853C108.07 12.0848 107.515 12.6507 107.094 13.383C106.694 14.1153 106.495 15.0029 106.495 16.0459C106.495 17.0667 106.694 17.9543 107.094 18.7088C107.515 19.4411 108.07 20.007 108.758 20.4064C109.446 20.8059 110.223 21.0056 111.088 21.0056ZM147.313 6.8255C148.733 6.8255 149.987 7.11399 151.075 7.69095C152.184 8.24573 153.05 9.11118 153.671 10.2873C154.314 11.4412 154.636 12.9281 154.636 14.7477V25H149.444V15.5466C149.444 14.1042 149.144 13.039 148.545 12.3511C147.946 11.6632 147.102 11.3192 146.015 11.3192C145.261 11.3192 144.584 11.4967 143.985 11.8518C143.385 12.1846 142.919 12.695 142.586 13.383C142.254 14.0709 142.087 14.9474 142.087 16.0126V25H136.894V15.5466C136.894 14.1042 136.595 13.039 135.996 12.3511C135.419 11.6632 134.587 11.3192 133.499 11.3192C132.745 11.3192 132.068 11.4967 131.469 11.8518C130.87 12.1846 130.404 12.695 130.071 13.383C129.738 14.0709 129.571 14.9474 129.571 16.0126V25H124.379V7.09179H129.338V11.9849L128.406 10.5536C129.028 9.33309 129.904 8.41216 131.036 7.79081C132.19 7.14727 133.499 6.8255 134.964 6.8255C136.606 6.8255 138.037 7.24713 139.258 8.09039C140.501 8.91146 141.322 10.1764 141.721 11.8851L139.89 11.3858C140.489 9.98773 141.444 8.87818 142.753 8.05711C144.084 7.23604 145.604 6.8255 147.313 6.8255ZM168.308 25.2663C166.267 25.2663 164.469 24.8669 162.916 24.068C161.385 23.2691 160.197 22.1817 159.354 20.8059C158.511 19.4078 158.089 17.8212 158.089 16.0459C158.089 14.2484 158.5 12.6618 159.321 11.2859C160.164 9.88787 161.307 8.80051 162.749 8.02382C164.192 7.22494 165.823 6.8255 167.642 6.8255C169.396 6.8255 170.971 7.20275 172.369 7.95725C173.789 8.68955 174.91 9.75472 175.731 11.1528C176.552 12.5286 176.963 14.1818 176.963 16.1125C176.963 16.3122 176.952 16.5452 176.929 16.8115C176.907 17.0556 176.885 17.2886 176.863 17.5105H162.317V14.4814H174.133L172.136 15.3802C172.136 14.4481 171.948 13.6382 171.57 12.9502C171.193 12.2623 170.672 11.7297 170.006 11.3525C169.34 10.953 168.563 10.7533 167.676 10.7533C166.788 10.7533 166 10.953 165.312 11.3525C164.647 11.7297 164.125 12.2734 163.748 12.9835C163.371 13.6715 163.182 14.4925 163.182 15.4467V16.2456C163.182 17.222 163.393 18.0875 163.814 18.842C164.258 19.5743 164.869 20.1402 165.645 20.5396C166.444 20.9168 167.376 21.1055 168.441 21.1055C169.396 21.1055 170.228 20.9612 170.938 20.6727C171.67 20.3843 172.336 19.9515 172.935 19.3746L175.698 22.3704C174.877 23.3024 173.845 24.0236 172.602 24.534C171.359 25.0222 169.928 25.2663 168.308 25.2663ZM197.17 25.2663C195.062 25.2663 193.419 24.7337 192.243 23.6685C191.067 22.5812 190.479 20.9723 190.479 18.842V3.13069H195.672V18.7754C195.672 19.5299 195.872 20.118 196.271 20.5396C196.67 20.939 197.214 21.1388 197.902 21.1388C198.723 21.1388 199.422 20.9168 199.999 20.473L201.397 24.1345C200.865 24.5118 200.221 24.8003 199.467 25C198.734 25.1775 197.969 25.2663 197.17 25.2663ZM187.716 11.4856V7.49123H200.132V11.4856H187.716ZM212.281 25.2663C210.372 25.2663 208.675 24.8669 207.188 24.068C205.723 23.2691 204.558 22.1817 203.693 20.8059C202.85 19.4078 202.428 17.8212 202.428 16.0459C202.428 14.2484 202.85 12.6618 203.693 11.2859C204.558 9.88787 205.723 8.80051 207.188 8.02382C208.675 7.22494 210.372 6.8255 212.281 6.8255C214.167 6.8255 215.854 7.22494 217.34 8.02382C218.827 8.80051 219.992 9.87678 220.836 11.2526C221.679 12.6285 222.1 14.2262 222.1 16.0459C222.1 17.8212 221.679 19.4078 220.836 20.8059C219.992 22.1817 218.827 23.2691 217.34 24.068C215.854 24.8669 214.167 25.2663 212.281 25.2663ZM212.281 21.0056C213.146 21.0056 213.923 20.8059 214.611 20.4064C215.299 20.007 215.843 19.4411 216.242 18.7088C216.641 17.9543 216.841 17.0667 216.841 16.0459C216.841 15.0029 216.641 14.1153 216.242 13.383C215.843 12.6507 215.299 12.0848 214.611 11.6853C213.923 11.2859 213.146 11.0862 212.281 11.0862C211.415 11.0862 210.639 11.2859 209.951 11.6853C209.263 12.0848 208.708 12.6507 208.286 13.383C207.887 14.1153 207.687 15.0029 207.687 16.0459C207.687 17.0667 207.887 17.9543 208.286 18.7088C208.708 19.4411 209.263 20.007 209.951 20.4064C210.639 20.8059 211.415 21.0056 212.281 21.0056ZM13.2188 66.3994C11.3769 66.3994 9.6793 66.111 8.12592 65.534C6.59474 64.9348 5.25218 64.0916 4.09824 63.0042C2.9665 61.9168 2.07885 60.6409 1.43531 59.1762C0.813962 57.7116 0.503287 56.1028 0.503287 54.3497C0.503287 52.5966 0.813962 50.9877 1.43531 49.5231C2.07885 48.0585 2.97759 46.7825 4.13153 45.6952C5.28547 44.6078 6.63912 43.7756 8.1925 43.1987C9.74587 42.5995 11.4546 42.2999 13.3186 42.2999C15.3824 42.2999 17.2354 42.6439 18.8775 43.3318C20.5418 44.0197 21.9399 45.0183 23.0716 46.3276L19.6098 49.5231C18.7665 48.6355 17.8456 47.9808 16.847 47.5592C15.8484 47.1154 14.7611 46.8935 13.5849 46.8935C12.4532 46.8935 11.4213 47.071 10.4893 47.4261C9.55725 47.7811 8.74727 48.2915 8.05935 48.9572C7.39362 49.623 6.87213 50.4108 6.49488 51.3206C6.13982 52.2304 5.96229 53.2401 5.96229 54.3497C5.96229 55.437 6.13982 56.4356 6.49488 57.3455C6.87213 58.2553 7.39362 59.0542 8.05935 59.7421C8.74727 60.4078 9.54615 60.9182 10.456 61.2733C11.388 61.6284 12.4088 61.8059 13.5184 61.8059C14.5835 61.8059 15.6154 61.6395 16.614 61.3066C17.6348 60.9515 18.6223 60.3635 19.5765 59.5424L22.6389 63.4369C21.374 64.3911 19.8983 65.1235 18.2118 65.6338C16.5474 66.1442 14.8831 66.3994 13.2188 66.3994ZM17.7125 62.7379V53.9835H22.6389V63.4369L17.7125 62.7379ZM27.2819 66V48.0918H32.2416V53.1514L31.5425 51.6868C32.0751 50.4219 32.9295 49.4676 34.1056 48.8241C35.2817 48.1584 36.7131 47.8255 38.3996 47.8255V52.6188C38.1777 52.5966 37.978 52.5855 37.8004 52.5855C37.6229 52.5633 37.4343 52.5522 37.2346 52.5522C35.8143 52.5522 34.6604 52.9627 33.7727 53.7838C32.9073 54.5827 32.4746 55.8365 32.4746 57.5452V66H27.2819ZM49.8785 66.2663C47.9701 66.2663 46.2725 65.8669 44.7857 65.068C43.3211 64.2691 42.156 63.1817 41.2906 61.8059C40.4473 60.4078 40.0257 58.8212 40.0257 57.0459C40.0257 55.2484 40.4473 53.6618 41.2906 52.2859C42.156 50.8879 43.3211 49.8005 44.7857 49.0238C46.2725 48.2249 47.9701 47.8255 49.8785 47.8255C51.7648 47.8255 53.4513 48.2249 54.9381 49.0238C56.4249 49.8005 57.5899 50.8768 58.4332 52.2526C59.2765 53.6285 59.6981 55.2262 59.6981 57.0459C59.6981 58.8212 59.2765 60.4078 58.4332 61.8059C57.5899 63.1817 56.4249 64.2691 54.9381 65.068C53.4513 65.8669 51.7648 66.2663 49.8785 66.2663ZM49.8785 62.0056C50.744 62.0056 51.5207 61.8059 52.2086 61.4064C52.8965 61.007 53.4402 60.4411 53.8396 59.7088C54.2391 58.9543 54.4388 58.0667 54.4388 57.0459C54.4388 56.0029 54.2391 55.1153 53.8396 54.383C53.4402 53.6507 52.8965 53.0848 52.2086 52.6853C51.5207 52.2859 50.744 52.0862 49.8785 52.0862C49.0131 52.0862 48.2364 52.2859 47.5485 52.6853C46.8606 53.0848 46.3058 53.6507 45.8841 54.383C45.4847 55.1153 45.285 56.0029 45.285 57.0459C45.285 58.0667 45.4847 58.9543 45.8841 59.7088C46.3058 60.4411 46.8606 61.007 47.5485 61.4064C48.2364 61.8059 49.0131 62.0056 49.8785 62.0056ZM66.7757 66L60.318 48.0918H65.2112L70.5703 63.5035H68.2403L73.8324 48.0918H78.2263L83.652 63.5035H81.3219L86.8475 48.0918H91.441L84.9502 66H79.9239L75.1639 52.7852H76.6951L71.7686 66H66.7757ZM101.666 66.2663C99.5576 66.2663 97.9155 65.7337 96.7393 64.6685C95.5632 63.5812 94.9752 61.9723 94.9752 59.842V44.1307H100.168V59.7754C100.168 60.5299 100.368 61.118 100.767 61.5396C101.166 61.939 101.71 62.1388 102.398 62.1388C103.219 62.1388 103.918 61.9168 104.495 61.473L105.893 65.1345C105.361 65.5118 104.717 65.8003 103.963 66C103.23 66.1775 102.465 66.2663 101.666 66.2663ZM92.2124 52.4856V48.4912H104.628V52.4856H92.2124ZM119.693 47.8255C121.113 47.8255 122.378 48.114 123.487 48.691C124.619 49.2457 125.507 50.1112 126.15 51.2873C126.794 52.4412 127.116 53.9281 127.116 55.7477V66H121.923V56.5466C121.923 55.1042 121.601 54.039 120.958 53.3511C120.336 52.6632 119.449 52.3192 118.295 52.3192C117.474 52.3192 116.73 52.4967 116.065 52.8518C115.421 53.1846 114.911 53.7061 114.533 54.4163C114.178 55.1264 114.001 56.0362 114.001 57.1458V66H108.808V41.3013H114.001V53.0515L112.836 51.5536C113.479 50.3553 114.4 49.4344 115.599 48.7908C116.797 48.1473 118.162 47.8255 119.693 47.8255ZM152.767 66.3994C150.969 66.3994 149.294 66.111 147.74 65.534C146.209 64.9348 144.878 64.0916 143.746 63.0042C142.614 61.9168 141.727 60.6409 141.083 59.1762C140.462 57.7116 140.151 56.1028 140.151 54.3497C140.151 52.5966 140.462 50.9877 141.083 49.5231C141.727 48.0585 142.614 46.7825 143.746 45.6952C144.9 44.6078 146.243 43.7756 147.774 43.1987C149.305 42.5995 150.98 42.2999 152.8 42.2999C154.819 42.2999 156.639 42.655 158.259 43.3651C159.901 44.053 161.277 45.0738 162.387 46.4275L158.925 49.623C158.126 48.7131 157.238 48.0363 156.262 47.5925C155.285 47.1265 154.22 46.8935 153.066 46.8935C151.979 46.8935 150.98 47.071 150.07 47.4261C149.161 47.7811 148.373 48.2915 147.707 48.9572C147.041 49.623 146.52 50.4108 146.143 51.3206C145.788 52.2304 145.61 53.2401 145.61 54.3497C145.61 55.4592 145.788 56.4689 146.143 57.3788C146.52 58.2886 147.041 59.0764 147.707 59.7421C148.373 60.4078 149.161 60.9182 150.07 61.2733C150.98 61.6284 151.979 61.8059 153.066 61.8059C154.22 61.8059 155.285 61.584 156.262 61.1402C157.238 60.6741 158.126 59.9751 158.925 59.0431L162.387 62.2386C161.277 63.5923 159.901 64.6242 158.259 65.3343C156.639 66.0444 154.808 66.3994 152.767 66.3994ZM165.662 66V41.3013H170.855V66H165.662ZM183.23 66.2663C181.743 66.2663 180.412 65.9778 179.236 65.4008C178.082 64.8239 177.183 63.9473 176.539 62.7712C175.896 61.5729 175.574 60.0528 175.574 58.2109V48.0918H180.767V57.4453C180.767 58.9321 181.077 60.0306 181.699 60.7407C182.342 61.4286 183.241 61.7726 184.395 61.7726C185.194 61.7726 185.904 61.6062 186.525 61.2733C187.147 60.9182 187.635 60.3857 187.99 59.6755C188.345 58.9432 188.523 58.0334 188.523 56.946V48.0918H193.715V66H188.789V61.0736L189.688 62.5049C189.088 63.7476 188.201 64.6907 187.025 65.3343C185.871 65.9556 184.606 66.2663 183.23 66.2663ZM209.111 66.2663C207.536 66.2663 206.182 65.9334 205.05 65.2677C203.918 64.602 203.053 63.5923 202.454 62.2386C201.855 60.8628 201.555 59.1319 201.555 57.0459C201.555 54.9377 201.866 53.2068 202.487 51.8532C203.131 50.4995 204.018 49.4898 205.15 48.8241C206.282 48.1584 207.602 47.8255 209.111 47.8255C210.798 47.8255 212.307 48.2028 213.638 48.9572C214.992 49.7117 216.057 50.7769 216.834 52.1528C217.632 53.5286 218.032 55.1597 218.032 57.0459C218.032 58.9099 217.632 60.5299 216.834 61.9057C216.057 63.2816 214.992 64.3579 213.638 65.1345C212.307 65.889 210.798 66.2663 209.111 66.2663ZM198.526 66V41.3013H203.719V51.72L203.386 57.0126L203.486 62.3385V66H198.526ZM208.212 62.0056C209.078 62.0056 209.843 61.8059 210.509 61.4064C211.197 61.007 211.741 60.4411 212.14 59.7088C212.562 58.9543 212.773 58.0667 212.773 57.0459C212.773 56.0029 212.562 55.1153 212.14 54.383C211.741 53.6507 211.197 53.0848 210.509 52.6853C209.843 52.2859 209.078 52.0862 208.212 52.0862C207.347 52.0862 206.57 52.2859 205.882 52.6853C205.194 53.0848 204.651 53.6507 204.251 54.383C203.852 55.1153 203.652 56.0029 203.652 57.0459C203.652 58.0667 203.852 58.9543 204.251 59.7088C204.651 60.4411 205.194 61.007 205.882 61.4064C206.57 61.8059 207.347 62.0056 208.212 62.0056ZM227.533 66.2663C226.002 66.2663 224.526 66.0888 223.106 65.7337C221.708 65.3565 220.598 64.8904 219.777 64.3357L221.508 60.6076C222.329 61.118 223.294 61.5396 224.404 61.8725C225.536 62.1831 226.645 62.3385 227.733 62.3385C228.931 62.3385 229.774 62.1942 230.262 61.9057C230.773 61.6173 231.028 61.2178 231.028 60.7074C231.028 60.2858 230.828 59.9751 230.429 59.7754C230.052 59.5535 229.541 59.3871 228.898 59.2761C228.254 59.1651 227.544 59.0542 226.767 58.9432C226.013 58.8323 225.247 58.688 224.471 58.5105C223.694 58.3108 222.984 58.0223 222.34 57.6451C221.697 57.2678 221.175 56.7574 220.776 56.1139C220.398 55.4703 220.21 54.6382 220.21 53.6174C220.21 52.4856 220.532 51.487 221.175 50.6216C221.841 49.7561 222.795 49.0793 224.038 48.5911C225.281 48.0807 226.767 47.8255 228.498 47.8255C229.719 47.8255 230.961 47.9586 232.226 48.2249C233.491 48.4912 234.545 48.8796 235.389 49.39L233.658 53.0848C232.792 52.5744 231.916 52.2304 231.028 52.0529C230.163 51.8532 229.319 51.7533 228.498 51.7533C227.344 51.7533 226.501 51.9087 225.968 52.2193C225.436 52.53 225.17 52.9295 225.17 53.4177C225.17 53.8615 225.358 54.1943 225.735 54.4163C226.135 54.6382 226.656 54.8157 227.3 54.9488C227.943 55.082 228.642 55.204 229.397 55.315C230.174 55.4038 230.95 55.548 231.727 55.7477C232.504 55.9474 233.203 56.2359 233.824 56.6132C234.468 56.9682 234.989 57.4675 235.389 58.1111C235.788 58.7324 235.988 59.5535 235.988 60.5743C235.988 61.6838 235.655 62.6713 234.989 63.5368C234.323 64.3801 233.358 65.0458 232.093 65.534C230.85 66.0222 229.33 66.2663 227.533 66.2663Z" fill="white"/>
</svg>
